# Blender 4.2.0
# www.blender.org
mtllib Cucumber.mtl
o Cucumber_English_01
v 0.525633 0.046451 -0.039717
v -0.555890 0.022717 -0.000000
v -0.328837 0.095510 -0.078227
v -0.328837 0.016560 -0.110629
v -0.328837 -0.061681 -0.078227
v -0.328837 -0.093373 -0.000000
v -0.328837 -0.060660 0.078227
v -0.328837 0.017579 0.110629
v -0.328837 0.095818 0.078227
v -0.328837 0.128226 -0.000000
v 0.503541 0.075885 -0.067644
v 0.503820 0.045123 -0.080458
v 0.507044 0.014432 -0.067978
v 0.511323 0.001792 -0.037515
v 0.514152 0.014606 -0.006914
v 0.513873 0.045368 0.005900
v 0.510649 0.076059 -0.006580
v 0.506370 0.088699 -0.037043
v -0.523617 0.060427 -0.037901
v -0.442135 0.089341 -0.068133
v -0.442135 0.117888 -0.000000
v -0.523617 0.076317 -0.000000
v -0.523617 0.022300 -0.053600
v -0.442135 0.020449 -0.096355
v -0.523617 -0.015601 -0.037901
v -0.442135 -0.047692 -0.068133
v -0.523617 -0.031073 -0.000000
v -0.442135 -0.075155 -0.000000
v -0.523617 -0.015183 0.037901
v -0.442135 -0.046608 0.068133
v -0.523617 0.022717 0.053600
v -0.442135 0.021533 0.096355
v -0.523617 0.060618 0.037901
v -0.442135 0.089666 0.068133
v -0.082945 0.068777 0.071407
v 0.214919 0.076623 0.063075
v 0.214919 0.005185 0.092663
v -0.082945 -0.002638 0.100985
v 0.214919 -0.066255 0.063075
v -0.082945 -0.074050 0.071407
v 0.214919 -0.095843 -0.008357
v -0.082945 -0.103700 0.000000
v 0.214919 -0.066255 -0.079789
v -0.082945 -0.074260 -0.071407
v 0.214919 0.005185 -0.109378
v -0.082945 -0.002848 -0.100985
v 0.214919 0.076623 -0.079789
v -0.082945 0.068711 -0.071407
v 0.214919 0.106216 -0.008357
v -0.082945 0.098355 -0.000000
v 0.385603 0.092945 -0.092529
v 0.450128 0.086892 -0.089532
v 0.386246 0.020613 -0.122650
v 0.450533 0.026775 -0.114608
v 0.392274 0.123078 -0.020593
v 0.455721 0.111903 -0.029763
v 0.393845 -0.051546 -0.093315
v 0.456713 -0.033288 -0.090234
v 0.403942 -0.081264 -0.021705
v 0.471164 -0.048624 -0.029770
v 0.410555 -0.051139 0.050240
v 0.470619 -0.032949 0.029226
v 0.409878 0.021190 0.080366
v 0.470185 0.027254 0.054218
v 0.402313 0.093353 0.051026
v 0.464014 0.087231 0.029755
vn -0.5253 0.5996 -0.6038
vn -0.2237 0.6879 -0.6905
vn -0.2419 0.0037 -0.9703
vn -0.5320 0.0032 -0.8468
vn -0.5239 0.8518 -0.0017
vn -0.2166 0.9762 -0.0021
vn -0.5263 0.6013 0.6013
vn -0.2239 0.6913 0.6869
vn -0.2609 -0.6830 -0.6822
vn -0.5406 -0.5952 -0.5945
vn -0.2676 -0.9635 0.0068
vn -0.5414 -0.8407 0.0061
vn -0.2596 -0.6796 0.6861
vn -0.5375 -0.5940 0.5985
vn -0.2418 0.0044 0.9703
vn -0.5319 0.0022 0.8468
vn 0.4863 0.6219 -0.6138
vn 0.9914 0.0581 -0.1175
vn 0.5803 0.0720 -0.8112
vn 0.7099 -0.4097 -0.5728
vn 0.8037 -0.5871 -0.0972
vn 0.8334 -0.3941 0.3875
vn 0.7706 0.0728 0.6332
vn 0.6319 0.6178 0.4680
vn 0.5062 0.8599 -0.0655
vn 0.0354 0.7098 -0.7035
vn 0.0547 0.9985 -0.0015
vn -1.0000 0.0009 -0.0002
vn -0.0103 0.0108 -0.9999
vn -0.0569 -0.7023 -0.7097
vn -0.0771 -0.9970 0.0050
vn -0.0578 -0.6995 0.7123
vn -0.0103 0.0113 0.9999
vn 0.0362 0.7123 0.7010
vn 0.0429 0.9991 0.0029
vn 0.0461 0.6982 0.7144
vn -0.0049 0.7003 0.7138
vn -0.0518 0.9986 0.0071
vn 0.0325 -0.0127 0.9994
vn 0.0422 -0.0061 0.9991
vn 0.0115 -0.7112 0.7029
vn 0.0627 -0.7058 0.7057
vn -0.0050 -1.0000 0.0060
vn 0.0464 -0.9989 0.0053
vn -0.0086 -0.7158 -0.6982
vn 0.0023 -0.7123 -0.7018
vn 0.0027 -0.0123 -0.9999
vn -0.0459 -0.0055 -0.9989
vn 0.0242 0.7013 -0.7125
vn -0.0691 0.7055 -0.7054
vn 0.2050 0.6756 -0.7082
vn 0.2514 0.9673 -0.0341
vn 0.2780 0.0075 -0.9606
vn 0.3940 0.6742 0.6247
vn 0.4119 -0.6270 -0.6612
vn 0.5542 -0.8303 -0.0595
vn 0.5741 -0.6111 0.5450
vn 0.5297 0.0128 0.8481
vn -0.0660 0.7142 -0.6968
vn -0.0287 0.0033 -0.9996
vn -0.0290 0.9995 0.0154
vn 0.0682 -0.7121 -0.6987
vn 0.0574 0.7004 0.7115
vn 0.1533 -0.9882 0.0031
vn 0.1799 -0.6944 0.6967
vn 0.1404 0.0026 0.9901
vt 0.385156 0.339314
vt 0.385156 0.407427
vt 0.356475 0.407427
vt 0.356475 0.339314
vt 0.414045 0.339314
vt 0.414045 0.407427
vt 0.443265 0.339314
vt 0.443265 0.407427
vt 0.328770 0.407427
vt 0.328770 0.339314
vt 0.284657 0.407427
vt 0.284657 0.339314
vt 0.543951 0.339314
vt 0.543951 0.407427
vt 0.499904 0.407427
vt 0.499904 0.339314
vt 0.472180 0.407427
vt 0.472180 0.339314
vt 0.256045 0.313209
vt 0.215740 0.272904
vt 0.272749 0.273397
vt 0.256434 0.233158
vt 0.216193 0.216157
vt 0.175708 0.232871
vt 0.158992 0.273356
vt 0.175992 0.313597
vt 0.216233 0.329913
vt 0.385156 0.479885
vt 0.414045 0.479885
vt 0.256128 0.223407
vt 0.297802 0.181642
vt 0.297896 0.240704
vt 0.238840 0.181424
vt 0.356475 0.479885
vt 0.256107 0.139705
vt 0.328771 0.479886
vt 0.297842 0.122508
vt 0.284657 0.479885
vt 0.339664 0.140079
vt 0.543951 0.479885
vt 0.499904 0.479885
vt 0.356825 0.181878
vt 0.472180 0.479885
vt 0.339465 0.223441
vt 0.443265 0.479885
vt 0.414045 0.619462
vt 0.443265 0.619462
vt 0.443265 0.791365
vt 0.414045 0.791365
vt 0.472180 0.619462
vt 0.472180 0.791365
vt 0.499904 0.619462
vt 0.499904 0.791365
vt 0.543951 0.619462
vt 0.543951 0.791365
vt 0.284657 0.619462
vt 0.328770 0.619462
vt 0.328770 0.791365
vt 0.284657 0.791365
vt 0.356475 0.619462
vt 0.356475 0.791365
vt 0.385156 0.619462
vt 0.385156 0.791365
vt 0.385156 0.990054
vt 0.385156 0.940709
vt 0.414045 0.940750
vt 0.414045 0.990054
vt 0.356475 0.990054
vt 0.356475 0.940626
vt 0.443265 0.940709
vt 0.443265 0.990054
vt 0.328770 0.990054
vt 0.328770 0.940552
vt 0.284658 0.990054
vt 0.284658 0.940533
vt 0.499904 0.990054
vt 0.499904 0.940552
vt 0.543951 0.940533
vt 0.543951 0.990054
vt 0.472180 0.990054
vt 0.472180 0.940626
vt 0.385156 0.905580
vt 0.356475 0.905572
vt 0.414045 0.905593
vt 0.328770 0.905584
vt 0.443265 0.905580
vt 0.284658 0.905606
vt 0.543951 0.905606
vt 0.499904 0.905584
vt 0.472180 0.905572
s 1
usemtl lambert110
f 19/1/1 20/2/2 24/3/3 23/4/4
f 20/2/2 19/1/1 22/5/5 21/6/6
f 21/6/6 22/5/5 33/7/7 34/8/8
f 23/4/4 24/3/3 26/9/9 25/10/10
f 25/10/10 26/9/9 28/11/11 27/12/12
f 27/13/12 28/14/11 30/15/13 29/16/14
f 29/16/14 30/15/13 32/17/15 31/18/16
f 31/18/16 32/17/15 34/8/8 33/7/7
f 11/19/17 1/20/18 12/21/19
f 12/21/19 1/20/18 13/22/20
f 13/22/20 1/20/18 14/23/21
f 14/23/21 1/20/18 15/24/22
f 15/24/22 1/20/18 16/25/23
f 16/25/23 1/20/18 17/26/24
f 17/26/24 1/20/18 18/27/25
f 1/20/18 11/19/17 18/27/25
f 3/28/26 20/2/2 21/6/6 10/29/27
f 19/30/1 2/31/28 22/32/5
f 2/31/28 19/30/1 23/33/4
f 20/2/2 3/28/26 4/34/29 24/3/3
f 2/31/28 23/33/4 25/35/10
f 24/3/3 4/34/29 5/36/30 26/9/9
f 2/31/28 25/35/10 27/37/12
f 26/9/9 5/36/30 6/38/31 28/11/11
f 2/31/28 27/37/12 29/39/14
f 28/14/11 6/40/31 7/41/32 30/15/13
f 2/31/28 29/39/14 31/42/16
f 30/15/13 7/41/32 8/43/33 32/17/15
f 2/31/28 31/42/16 33/44/7
f 32/17/15 8/43/33 9/45/34 34/8/8
f 2/31/28 33/44/7 22/32/5
f 34/8/8 9/45/34 10/29/27 21/6/6
f 50/46/35 35/47/36 36/48/37 49/49/38
f 35/47/36 38/50/39 37/51/40 36/48/37
f 38/50/39 40/52/41 39/53/42 37/51/40
f 40/52/41 42/54/43 41/55/44 39/53/42
f 42/56/43 44/57/45 43/58/46 41/59/44
f 44/57/45 46/60/47 45/61/48 43/58/46
f 46/60/47 48/62/49 47/63/50 45/61/48
f 47/63/50 48/62/49 50/46/35 49/49/38
f 38/50/39 35/47/36 9/45/34 8/43/33
f 40/52/41 38/50/39 8/43/33 7/41/32
f 42/54/43 40/52/41 7/41/32 6/40/31
f 44/57/45 42/56/43 6/38/31 5/36/30
f 46/60/47 44/57/45 5/36/30 4/34/29
f 48/62/49 46/60/47 4/34/29 3/28/26
f 50/46/35 48/62/49 3/28/26 10/29/27
f 35/47/36 50/46/35 10/29/27 9/45/34
f 11/64/17 52/65/51 56/66/52 18/67/25
f 12/68/19 54/69/53 52/65/51 11/64/17
f 18/67/25 56/66/52 66/70/54 17/71/24
f 13/72/20 58/73/55 54/69/53 12/68/19
f 14/74/21 60/75/56 58/73/55 13/72/20
f 15/76/22 62/77/57 60/78/56 14/79/21
f 16/80/23 64/81/58 62/77/57 15/76/22
f 17/71/24 66/70/54 64/81/58 16/80/23
f 51/82/59 52/65/51 54/69/53 53/83/60
f 52/65/51 51/82/59 55/84/61 56/66/52
f 53/83/60 54/69/53 58/73/55 57/85/62
f 56/66/52 55/84/61 65/86/63 66/70/54
f 57/85/62 58/73/55 60/75/56 59/87/64
f 59/88/64 60/78/56 62/77/57 61/89/65
f 61/89/65 62/77/57 64/81/58 63/90/66
f 63/90/66 64/81/58 66/70/54 65/86/63
f 51/82/59 53/83/60 45/61/48 47/63/50
f 53/83/60 57/85/62 43/58/46 45/61/48
f 57/85/62 59/87/64 41/59/44 43/58/46
f 59/88/64 61/89/65 39/53/42 41/55/44
f 61/89/65 63/90/66 37/51/40 39/53/42
f 63/90/66 65/86/63 36/48/37 37/51/40
f 65/86/63 55/84/61 49/49/38 36/48/37
f 55/84/61 51/82/59 47/63/50 49/49/38
